<svg version="1" viewBox="0 0 1920 1080" xmlns="http://www.w3.org/2000/svg"><defs><linearGradient id="a" x1="757" x2="992" y1="610" y2="208" gradientUnits="userSpaceOnUse"><stop stop-color="#4b2f7c" offset="0"/><stop stop-color="#8e54b0" offset="1"/></linearGradient></defs><g fill="#3e245c" aria-label="PULSA"><path d="M629 800q21 0 35 10 15 11 15 29 0 21-15 32-16 11-39 11l-18-2v57h-11V803q18-3 33-3zm39 40q0-31-39-31l-22 1v61q8 2 20 2 19 0 30-9t11-24zM853 880q0 60-51 60t-51-60v-78h11v78q0 24 10 37 9 14 30 14t30-14q9-13 9-37v-78h12zM1008 937h-78V802h12v126h66zM1154 902q0 18-14 28-13 10-32 10-23 0-38-10l5-10q14 11 34 11 15 0 24-8t9-20q0-13-7-19-7-7-22-12-38-12-38-38 0-16 12-25t30-9q19 0 31 7l-2 4-3 5q-12-7-26-7t-22 6q-9 7-9 18 0 19 30 29l15 6 11 7q5 4 9 11t3 16zM1324 937h-12l-16-43h-58l-16 43h-12l51-137h12zm-31-53l-26-72-26 72z"/></g><path transform="scale(.99996)" d="M960 209L720 624h180l30-51 30-52 30 52 30 51h180L960 209z" fill="url(#a)"/></svg>